# xmcd
#
# Track frame offsets:
#	150
#	13450
#	32299
#	48592
#	64462
#	79641
#	93695
#	106829
#	119815
#	133251
#	152495
#	163652
#
# Disc length: 2378 seconds
# Revision: 1
# Processed by: cddbd v1.5.2PL0 Copyright (c) Steve Scherf et al.
# Submitted via: dBpowerAMP V12.0
#
DISCID=a409480c
DTITLE=Bob Easter - By Request
DYEAR=2004
DGENRE=Country
TTITLE0=Ramblin Shoes
TTITLE1=The Old Gidgee Tree
TTITLE2=The Coloured Lad
TTITLE3=Australian Bushman
TTITLE4=Do you Think That I Don't Know
TTITLE5=Back Where He Belongs
TTITLE6=It Takes a Drought
TTITLE7=Saddle Boy
TTITLE8=The Old Man's Kingdom
TTITLE9=Song For The Lonely
TTITLE10=Just Rollin
TTITLE11=Log Book Blues
EXTD=
EXTT0=
EXTT1=
EXTT2=
EXTT3=
EXTT4=
EXTT5=
EXTT6=
EXTT7=
EXTT8=
EXTT9=
EXTT10=
EXTT11=
PLAYORDER=
